<svg width="16" height="16" viewBox="0 0 16 16" fill="none" xmlns="http://www.w3.org/2000/svg">
    <path fill-rule="evenodd" clip-rule="evenodd" d="M2.6193 7L2.69979 7.11779C3.81176 8.63946 5.75684 9.67316 8.00078 9.67316C10.2438 9.67316 12.1882 8.6403 13.3004 7.11965L13.3776 7.0048L14.6226 7.84153L14.5373 7.96834C14.5321 7.97608 14.5268 7.98372 14.5213 7.99126C13.1149 9.92412 10.7059 11.1732 8.00078 11.1732C5.29589 11.1732 2.88713 9.92433 1.48064 7.99175C1.47628 7.98576 1.47201 7.97971 1.46783 7.97359L1.38086 7.84633L2.6193 7ZM7.25009 12.4245V15.4232H8.75009V12.4245H7.25009ZM3.47151 10.8946L1.47238 12.8937L2.53304 13.9544L4.53217 11.9553L3.47151 10.8946ZM14.5278 12.8937L12.5287 10.8946L11.468 11.9553L13.4671 13.9544L14.5278 12.8937Z" fill="currentColor"/>
</svg>