<svg width="24" height="24" viewBox="0 0 24 24" fill="none" xmlns="http://www.w3.org/2000/svg">
<path fill-rule="evenodd" clip-rule="evenodd" d="M17.3788 16.9133L16.7683 9.06439C16.5861 6.72152 14.6318 4.91333 12.2819 4.91333H11.7181C9.36818 4.91333 7.41389 6.72152 7.23167 9.06438L6.6212 16.9133L17.3788 16.9133ZM5.73619 8.94807L5.11667 16.9133L4 16.9133V18.4133L5 18.4133H6.50453H8.12602C8.57006 20.1386 10.1362 21.4133 12 21.4133C13.8638 21.4133 15.4299 20.1386 15.874 18.4133H17.4955H19H20V16.9133H18.8833L18.2638 8.94807C18.0208 5.82425 15.4151 3.41333 12.2819 3.41333H11.7181C8.58487 3.41333 5.97915 5.82425 5.73619 8.94807ZM14.292 18.4133L9.70802 18.4133C10.0938 19.2963 10.9748 19.9133 12 19.9133C13.0252 19.9133 13.9062 19.2963 14.292 18.4133Z" fill="white" fill-opacity="0.85"/>
</svg>
